<?xml version="1.0" encoding="UTF-8" standalone="no"?>
<!-- Generator: Adobe Illustrator 17.0.0, SVG Export Plug-In . SVG Version: 6.00 Build 0)  -->

<svg
   xmlns:dc="http://purl.org/dc/elements/1.1/"
   xmlns:cc="http://creativecommons.org/ns#"
   xmlns:rdf="http://www.w3.org/1999/02/22-rdf-syntax-ns#"
   xmlns:svg="http://www.w3.org/2000/svg"
   xmlns="http://www.w3.org/2000/svg"
   xmlns:sodipodi="http://sodipodi.sourceforge.net/DTD/sodipodi-0.dtd"
   xmlns:inkscape="http://www.inkscape.org/namespaces/inkscape"
   version="1.1"
   id="Layer_1"
   x="0px"
   y="0px"
   width="299.80399"
   height="169.44501"
   viewBox="0 0 299.80399 169.44501"
   enable-background="new 0 0 299.805 227.045"
   xml:space="preserve"
   sodipodi:docname="Source_Color-logo.svg"
   inkscape:version="0.92.4 5da689c313, 2019-01-14"><metadata
   id="metadata49"><rdf:RDF><cc:Work
       rdf:about=""><dc:format>image/svg+xml</dc:format><dc:type
         rdf:resource="http://purl.org/dc/dcmitype/StillImage" /><dc:title></dc:title></cc:Work></rdf:RDF></metadata><defs
   id="defs47" /><sodipodi:namedview
   pagecolor="#ffffff"
   bordercolor="#666666"
   borderopacity="1"
   objecttolerance="10"
   gridtolerance="10"
   guidetolerance="10"
   inkscape:pageopacity="0"
   inkscape:pageshadow="2"
   inkscape:window-width="1920"
   inkscape:window-height="999"
   id="namedview45"
   showgrid="false"
   inkscape:zoom="1.010657"
   inkscape:cx="-57.883142"
   inkscape:cy="55.922501"
   inkscape:window-x="0"
   inkscape:window-y="0"
   inkscape:window-maximized="1"
   inkscape:current-layer="g40" />
<g
   id="g42">
	<g
   id="g20">
		<path
   d="M 0,0 H 165.854 V 54.245 H 0 Z m 42.676,39.364 v -9.889 c 0,-5.184 -3.6,-7.537 -7.393,-7.537 -3.457,0 -5.953,1.824 -7.104,4.705 -1.008,-3.216 -3.889,-4.705 -7.057,-4.705 -3.024,0 -5.281,1.44 -6.577,3.696 V 22.37 H 5.473 v 4.705 h 2.88 v 12.289 h -2.88 v 4.656 h 13.153 v -4.656 h -4.081 v -7.585 c 0,-3.024 1.248,-5.136 4.176,-5.136 2.4,0 3.696,1.488 3.696,5.232 V 44.02 h 9.073 v -4.656 h -2.88 v -7.585 c 0,-3.024 1.2,-5.136 4.128,-5.136 2.544,0 3.792,1.488 3.792,5.232 V 44.02 h 9.073 v -4.656 z m 5.568,-5.857 c 0,6.96 4.561,10.993 11.281,10.993 6.913,0 11.953,-4.368 11.953,-11.233 0,-6.097 -3.84,-11.329 -11.617,-11.329 -7.777,0 -11.617,5.232 -11.617,11.569 z m 6.337,-0.384 c 0,-4.032 2.016,-6.433 5.184,-6.433 2.928,0 5.281,2.016 5.281,6.336 0,4.128 -2.112,6.721 -5.376,6.721 -3.313,10e-4 -5.089,-2.928 -5.089,-6.624 z m 36.291,2.88 -1.008,3.36 H 82.856 L 94.857,25.586 94.377,22.37 H 75.319 l -0.768,7.584 4.56,0.48 0.96,-3.409 h 6.72 l -11.904,13.731 0.624,3.264 h 18.961 l 1.296,-7.584 z m 9.457,-13.633 v 7.777 h 6.433 V 22.37 Z m 0,13.873 v 7.777 h 6.433 v -7.777 z m 19.874,-25.25 -9.361,33.027 h 6.097 l 9.36,-33.027 z m 12.528,0 -9.313,33.027 h 6.048 l 9.361,-33.027 z m 27.699,29.235 c -0.288,0.144 -0.624,0.144 -0.816,0.144 -1.008,0 -1.488,-0.384 -1.488,-1.68 v -9.361 c 0,-4.944 -4.033,-7.393 -8.593,-7.393 -3.552,0 -5.569,0.48 -9.313,1.968 l -0.816,4.993 4.896,0.576 0.72,-2.448 c 1.008,-0.576 2.016,-0.624 3.36,-0.624 3.457,0 3.457,2.592 3.457,4.849 v 0.72 c -1.056,-0.192 -2.304,-0.192 -3.457,-0.192 -5.041,0 -10.081,1.248 -10.081,6.529 0,4.56 3.504,6.192 6.625,6.192 3.504,0 5.712,-2.112 6.913,-4.272 0.336,2.64 1.872,4.272 4.8,4.272 1.344,0 2.736,-0.384 3.888,-1.008 z m -15.841,-2.593 c 0,-2.448 1.968,-3.024 4.176,-3.024 1.008,0 2.064,0.144 3.072,0.288 -0.144,3.552 -2.448,5.232 -4.657,5.232 -1.824,10e-4 -2.591,-1.152 -2.591,-2.496 z"
   id="path2"
   inkscape:connector-curvature="0" />
		<g
   id="g18">
			<path
   d="m 14.209,82.707 c -4.081,0 -6.673,3.696 -6.769,6.865 v 3.216 c 0,3.6 2.88,6.432 6.577,6.432 4.704,0 6.672,-4.08 6.672,-8.497 0.001,-5.328 -2.832,-8.016 -6.48,-8.016 z"
   id="path4"
   inkscape:connector-curvature="0"
   style="fill:#006b4f" />
			<path
   d="m 31.201,95.716 c 0,2.736 2.112,3.6 3.984,3.6 2.976,0 6.048,-2.208 6.289,-5.712 v -1.632 c -1.2,-0.096 -2.544,-0.24 -3.984,-0.24 -3.169,-0.001 -6.289,0.671 -6.289,3.984 z"
   id="path6"
   inkscape:connector-curvature="0"
   style="fill:#006b4f" />
			<path
   d="m 88.416,82.754 c -4.848,0 -6.864,3.984 -6.864,8.497 0,5.232 2.784,7.729 6.289,7.729 4.032,0 6.816,-3.36 6.913,-6.577 v -3.696 c -0.002,-3.6 -2.882,-5.953 -6.338,-5.953 z"
   id="path8"
   inkscape:connector-curvature="0"
   style="fill:#006b4f" />
			<path
   d="m 120.287,95.716 c 0,2.736 2.112,3.6 3.984,3.6 2.976,0 6.048,-2.208 6.289,-5.712 v -1.632 c -1.2,-0.096 -2.544,-0.24 -3.984,-0.24 -3.169,-0.001 -6.289,0.671 -6.289,3.984 z"
   id="path10"
   inkscape:connector-curvature="0"
   style="fill:#006b4f" />
			<path
   d="m 150.095,82.707 c -4.752,0 -6.865,4.032 -6.865,8.545 0,5.232 2.784,7.968 6.481,7.968 3.84,0 6.625,-3.84 6.769,-7.057 v -3.408 c -0.144,-3.552 -2.977,-6.048 -6.385,-6.048 z"
   id="path12"
   inkscape:connector-curvature="0"
   style="fill:#006b4f" />
			<path
   d="m 175.583,82.61 c -3.936,0 -5.665,3.024 -6.096,6.625 H 181.2 c 0.335,-3.168 -1.441,-6.625 -5.617,-6.625 z"
   id="path14"
   inkscape:connector-curvature="0"
   style="fill:#006b4f" />
			<path
   d="m 207.887,57.6 h -1.154 -19.63 -1.154 -21.213 -1.155 -25.053 -1.154 -21.838 -1.154 -11.421 -1.154 H 76.802 75.647 49.442 48.287 26.45 25.296 0 v 54.245 h 25.296 1.154 21.837 1.155 26.205 1.155 10.174 c -4.176,-0.192 -7.825,-2.208 -8.881,-6.289 l 2.688,-1.344 c 1.104,3.36 4.128,4.704 7.008,4.704 4.081,0 6.961,-2.88 6.961,-8.208 v -3.456 c -1.296,2.496 -3.601,4.656 -7.633,4.656 -5.088,0 -9.169,-3.696 -9.169,-10.417 0,-5.712 2.928,-11.665 9.553,-11.665 3.216,0 5.857,1.344 7.249,3.792 v -3.36 h 6.864 v 2.736 H 98.16 v 17.857 c 0,6.528 -3.648,10.753 -10.033,10.993 h 13.679 1.154 11.421 1.154 21.838 1.154 25.053 1.155 21.213 1.154 19.63 1.154 26.689 V 57.6 Z M 14.689,102.1 c -3.313,0 -6.097,-1.44 -7.489,-4.032 0,0.24 -0.384,3.312 -0.432,3.552 H 3.408 C 3.696,99.748 4.032,97.492 4.032,95.379 V 71.33 H 0.384 v -2.736 h 7.057 v 16.082 c 1.296,-2.64 3.552,-4.849 7.632,-4.849 5.329,0 9.169,3.792 9.169,10.561 0,5.664 -2.736,11.712 -9.553,11.712 z m 30.673,0 c -2.496,0 -3.84,-1.68 -3.888,-4.32 v -0.096 c -1.344,2.304 -3.84,4.417 -7.297,4.417 -2.832,0 -6.48,-1.44 -6.48,-6 0,-5.376 5.185,-6.577 9.985,-6.577 1.296,0 2.64,0.096 3.792,0.192 v -1.92 c 0,-3.072 -1.008,-5.185 -4.849,-5.185 -1.44,0 -2.832,0.24 -4.128,0.864 l -0.816,3.696 -2.784,-0.336 0.768,-4.944 c 2.208,-1.488 4.752,-2.064 7.537,-2.064 4.944,0 7.632,2.352 7.632,7.153 v 10.177 c 0,1.584 0.576,2.304 1.824,2.304 0.432,0 1.008,-0.096 1.44,-0.288 l 0.048,2.208 c -0.768,0.431 -1.776,0.719 -2.784,0.719 z m 19.679,-0.48 v -2.736 h 3.696 v -9.937 c 0,-4.608 -2.064,-6.288 -4.944,-6.288 -3.84,0 -6.336,2.976 -6.48,6.24 v 9.985 h 3.744 v 2.736 H 50.208 v -2.736 h 3.744 V 82.995 h -3.84 v -2.736 h 7.201 v 3.792 c 1.44,-2.641 4.081,-4.225 7.489,-4.225 4.176,0 7.345,2.448 7.345,8.113 v 10.945 h 3.501 v 2.736 z m 49.055,0 h -10.849 v -2.736 h 3.744 V 71.33 h -3.792 v -2.736 h 7.153 v 30.291 h 3.744 z m 20.352,0.48 c -2.496,0 -3.84,-1.68 -3.888,-4.32 v -0.096 c -1.344,2.304 -3.84,4.417 -7.297,4.417 -2.832,0 -6.48,-1.44 -6.48,-6 0,-5.376 5.185,-6.577 9.985,-6.577 1.296,0 2.64,0.096 3.792,0.192 v -1.92 c 0,-3.072 -1.008,-5.185 -4.849,-5.185 -1.44,0 -2.832,0.24 -4.128,0.864 l -0.816,3.696 -2.784,-0.336 0.768,-4.944 c 2.208,-1.488 4.752,-2.064 7.537,-2.064 4.944,0 7.632,2.352 7.632,7.153 v 10.177 c 0,1.584 0.576,2.304 1.824,2.304 0.432,0 1.008,-0.096 1.44,-0.288 l 0.048,2.208 c -0.768,0.431 -1.776,0.719 -2.784,0.719 z m 29.089,-0.48 H 156.48 V 97.3 c -1.392,2.544 -3.745,4.8 -7.633,4.8 -5.521,0 -9.169,-3.937 -9.169,-10.609 0,-5.712 2.688,-11.665 9.649,-11.665 3.12,0 5.761,1.392 7.153,3.888 V 71.33 h -5.185 v -2.736 h 8.544 v 30.291 h 3.697 v 2.735 z m 12.43,0.48 c -6.049,0 -10.081,-3.937 -10.081,-10.849 0,-6.625 3.745,-11.425 9.793,-11.425 5.856,0 9.025,4.32 9.073,9.361 0,0.816 -0.096,1.68 -0.288,2.544 h -15.025 c 0.192,4.752 2.544,7.488 6.769,7.488 3.36,0 5.233,-1.728 5.905,-4.368 l 2.832,0.624 c -0.577,3.649 -3.698,6.625 -8.978,6.625 z m 20.543,0 c -3.024,0 -6.289,-0.912 -8.113,-2.112 l 0.672,-4.848 2.688,0.288 -0.144,2.832 c 1.392,0.672 2.976,1.056 4.752,1.056 2.976,0 5.761,-1.152 5.761,-3.6 0,-5.857 -13.394,-1.392 -13.394,-9.697 0,-4.512 4.033,-6.192 7.921,-6.192 2.928,0 5.665,0.912 7.44,1.968 l 0.528,4.992 -2.784,0.336 -0.528,-3.457 c -1.296,-0.672 -2.64,-1.056 -4.368,-1.056 -2.688,0 -4.608,0.96 -4.608,3.168 0,5.568 13.249,1.152 13.249,9.649 0.001,4.177 -3.936,6.673 -9.072,6.673 z m 37.154,-0.48 h -10.849 v -2.736 h 3.744 v -9.937 c 0,-4.608 -2.064,-6.288 -5.041,-6.288 -3.744,0 -6.24,3.024 -6.384,6.145 v 10.081 h 3.696 v 2.736 h -10.8 v -2.736 h 3.696 V 71.33 h -3.696 v -2.736 h 7.104 v 15.505 c 1.44,-2.64 4.032,-4.272 7.489,-4.272 4.176,0 7.345,2.448 7.345,8.113 v 10.945 h 3.696 z"
   id="path16"
   inkscape:connector-curvature="0"
   style="fill:#006b4f" />
		</g>
	</g>
	<g
   id="g40">
		<path
   d="m 12.529,140.354 c -4.656,0 -6.625,4.032 -6.625,8.449 0,5.329 2.832,7.969 6.384,7.969 4.032,0 6.721,-3.792 6.817,-7.009 v -3.216 c 0.001,-3.6 -2.976,-6.193 -6.576,-6.193 z"
   id="path22"
   inkscape:connector-curvature="0"
   style="fill:#e2273e" />
		<path
   d="m 31.296,153.316 c 0,2.736 2.112,3.6 3.984,3.6 2.976,0 6.048,-2.208 6.289,-5.712 v -1.632 c -1.2,-0.096 -2.544,-0.24 -3.984,-0.24 -3.168,0 -6.289,0.671 -6.289,3.984 z"
   id="path24"
   inkscape:connector-curvature="0"
   style="fill:#e2273e" />
		<path
   d="m 94.991,140.259 c -4.464,0 -6.96,3.504 -6.96,8.256 0,4.657 2.4,8.305 6.96,8.305 4.56,0 7.057,-3.552 7.057,-8.353 -0.001,-4.896 -2.593,-8.208 -7.057,-8.208 z"
   id="path26"
   inkscape:connector-curvature="0"
   style="fill:#e2273e" />
		<path
   d="m 275.469,115.2 h -1.154 -16.462 -1.153 -12.141 -1.155 -26.205 -1.154 -25.628 -1.156 -40.123 -1.156 -40.125 -1.155 H 83.425 82.27 60.334 49.538 26.546 25.391 0 v 54.245 h 14.113 v -2.736 h 4.993 v -11.857 c -1.296,2.592 -3.601,4.848 -7.633,4.848 -5.28,0 -9.169,-3.792 -9.169,-10.561 0,-5.616 2.736,-11.713 9.505,-11.713 3.36,0 6.241,1.488 7.584,4.128 0.096,-1.2 0.24,-2.448 0.48,-3.696 h 3.36 c -0.432,2.208 -0.72,4.417 -0.72,6.625 v 22.226 h 2.877 v 2.736 h 0.387 0.768 22.991 10.797 21.937 1.155 23.276 1.155 40.125 1.156 40.123 1.156 25.628 1.154 26.205 1.155 12.141 1.153 16.462 1.154 3.262 v -2.736 h 3.984 l 2.785,-7.537 -7.777,-18.578 h -2.254 v -2.736 h 9.599 v 2.736 h -3.744 l 6,14.353 h 0.288 l 5.329,-14.353 h -3.456 v -2.736 h 9.408 v 2.736 h -2.544 l -7.537,18.625 -2.88,7.489 h 3.648 v 2.736 h 10.225 V 115.2 Z M 45.458,159.7 c -2.496,0 -3.84,-1.68 -3.888,-4.32 v -0.096 c -1.344,2.304 -3.84,4.417 -7.297,4.417 -2.832,0 -6.48,-1.44 -6.48,-6 0,-5.376 5.185,-6.577 9.985,-6.577 1.296,0 2.64,0.096 3.792,0.192 v -1.92 c 0,-3.072 -1.008,-5.185 -4.849,-5.185 -1.44,0 -2.832,0.24 -4.128,0.864 l -0.816,3.696 -2.784,-0.336 0.768,-4.944 c 2.208,-1.488 4.752,-2.064 7.537,-2.064 4.944,0 7.632,2.352 7.632,7.153 v 10.177 c 0,1.584 0.576,2.304 1.824,2.304 0.432,0 1.008,-0.096 1.44,-0.288 l 0.048,2.208 c -0.768,0.431 -1.777,0.719 -2.784,0.719 z m 26.877,0 c -5.904,0 -9.697,-3.984 -9.697,-10.849 0,-5.904 3.36,-11.425 9.985,-11.425 2.833,0 5.137,0.576 7.297,2.208 l 0.816,5.137 -2.784,0.336 -0.816,-3.6 c -1.296,-0.816 -2.736,-1.2 -4.561,-1.2 -4.561,0 -6.385,3.744 -6.385,8.353 0,5.137 2.304,8.161 6.529,8.161 3.312,0 5.136,-1.92 5.76,-5.424 l 2.88,0.624 c -0.575,3.743 -3.119,7.679 -9.024,7.679 z m 22.56,0 c -6.48,0 -10.369,-4.561 -10.369,-10.993 0,-6.241 3.648,-11.329 10.561,-11.329 6.96,0 10.513,5.088 10.513,11.137 0,6.481 -4.129,11.185 -10.705,11.185 z m 43.057,-0.48 v -2.736 h 3.12 v -9.937 c 0,-4.608 -2.016,-6.289 -4.849,-6.289 -3.936,0 -6.048,3.744 -6.145,6.432 v 9.793 h 3.696 v 2.736 h -10.177 v -2.736 h 3.072 v -9.937 c 0,-4.657 -1.968,-6.289 -4.752,-6.289 -3.984,0 -6.096,3.6 -6.192,6.336 v 9.889 h 3.937 v 2.736 h -11.041 v -2.736 h 3.744 v -15.889 h -3.792 v -2.736 h 7.153 v 3.984 c 1.392,-2.592 3.744,-4.417 7.153,-4.417 3.312,0 5.952,1.584 6.864,5.137 1.296,-2.977 3.84,-5.137 7.537,-5.137 4.081,0 7.153,2.448 7.153,8.113 v 10.945 h 3.548 v 2.736 h -10.029 z m 41.279,0 v -2.736 h 3.12 v -9.937 c 0,-4.608 -2.016,-6.289 -4.849,-6.289 -3.936,0 -6.048,3.744 -6.145,6.432 v 9.793 h 3.696 v 2.736 h -10.177 v -2.736 h 3.072 v -9.937 c 0,-4.657 -1.968,-6.289 -4.752,-6.289 -3.984,0 -6.096,3.6 -6.192,6.336 v 9.889 h 3.937 v 2.736 H 149.9 v -2.736 h 3.744 v -15.889 h -3.792 v -2.736 h 7.153 v 3.984 c 1.392,-2.592 3.744,-4.417 7.153,-4.417 3.312,0 5.952,1.584 6.864,5.137 1.296,-2.977 3.84,-5.137 7.537,-5.137 4.081,0 7.153,2.448 7.153,8.113 v 10.945 h 3.548 v 2.736 h -10.029 z m 36.719,0 h -7.201 v -4.032 c -1.344,2.688 -4.032,4.512 -7.44,4.512 -4.176,0 -7.393,-2.448 -7.393,-8.161 v -10.945 h -3.5 v -2.736 h 6.86 v 12.721 c 0,4.608 2.112,6.24 5.137,6.24 3.648,0 6.24,-3.36 6.336,-6.433 v -9.792 h -4.464 v -2.736 h 7.825 v 18.625 h 3.84 z m 16.847,0 v -2.736 h 3.696 v -9.937 c 0,-4.608 -2.064,-6.289 -4.944,-6.289 -3.84,0 -6.336,2.976 -6.48,6.24 v 9.985 h 3.744 v 2.736 h -10.849 v -2.736 h 3.744 v -15.889 h -3.84 v -2.736 h 7.201 v 3.792 c 1.44,-2.641 4.081,-4.225 7.489,-4.225 4.176,0 7.345,2.448 7.345,8.113 v 10.945 h 3.501 v 2.736 h -10.607 z m 16.127,-31.25 h 3.648 v 4.368 h -3.648 z m 7.44,31.25 h -10.849 v -2.736 h 3.744 v -15.889 h -3.84 v -2.736 h 7.2 v 18.625 h 3.744 v 2.736 z m 11.424,0.48 c -4.272,0 -6.433,-2.592 -6.433,-6.769 v -12.385 h -3.456 v -2.688 h 3.456 v -6.865 h 3.36 v 6.865 h 8.353 v 2.688 h -8.353 V 152.5 c 0,2.592 0.864,4.272 3.456,4.272 1.633,0 2.833,-0.672 3.457,-4.128 l 2.592,0.816 c -0.623,4.128 -2.591,6.24 -6.432,6.24 z"
   id="path28"
   inkscape:connector-curvature="0"
   style="fill:#e2273e" />
		
		
		
		
		
	</g>
</g>
</svg>